<?xml version="1.0" encoding="iso-8859-1"?>
<!-- Generator: Adobe Illustrator 19.0.0, SVG Export Plug-In . SVG Version: 6.00 Build 0)  -->
<svg version="1.1" id="Capa_1" xmlns="http://www.w3.org/2000/svg" xmlns:xlink="http://www.w3.org/1999/xlink" x="0px" y="0px"
	 viewBox="0 0 512 512" style="enable-background:new 0 0 512 512;" xml:space="preserve">
<g>
	<g>
		<path d="M313.36,465H20V47h96.387c5.523,0,10-4.478,10-10s-4.477-10-10-10H10C4.477,27,0,31.478,0,37v438c0,5.522,4.477,10,10,10
			h303.36c5.523,0,10-4.478,10-10C323.36,469.478,318.883,465,313.36,465z"/>
	</g>
</g>
<g>
	<g>
		<path d="M167.22,29.93c-1.87-1.861-4.44-2.93-7.08-2.93c-2.63,0-5.2,1.07-7.07,2.93c-1.86,1.86-2.92,4.44-2.92,7.07
			s1.06,5.21,2.92,7.069c1.87,1.861,4.45,2.931,7.07,2.931c2.64,0,5.21-1.07,7.08-2.931c1.86-1.859,2.92-4.439,2.92-7.069
			S169.08,31.79,167.22,29.93z"/>
	</g>
</g>
<g>
	<g>
		<path d="M502,27H207.387c-5.523,0-10,4.478-10,10s4.477,10,10,10H492v418h-95.973c-5.523,0-10,4.478-10,10c0,5.522,4.477,10,10,10
			H502c5.523,0,10-4.478,10-10V37C512,31.478,507.523,27,502,27z"/>
	</g>
</g>
<g>
	<g>
		<path d="M364.6,467.93c-1.86-1.861-4.44-2.93-7.07-2.93c-2.64,0-5.22,1.07-7.07,2.93c-1.87,1.86-2.93,4.44-2.93,7.07
			s1.06,5.21,2.93,7.069c1.86,1.861,4.43,2.931,7.07,2.931c2.63,0,5.21-1.07,7.07-2.931c1.86-1.859,2.93-4.439,2.93-7.069
			S366.46,469.79,364.6,467.93z"/>
	</g>
</g>
<g>
	<g>
		<path d="M463.936,65.757h-0.179c-5.523,0-10,4.478-10,10c0,5.522,4.477,10,10,10h0.179c5.522,0,10-4.478,10-10
			C473.936,70.235,469.459,65.757,463.936,65.757z"/>
	</g>
</g>
<g>
	<g>
		<path d="M48.09,65.757h-0.179c-5.523,0-10,4.478-10,10c0,5.522,4.477,10,10,10h0.179c5.523,0,10-4.478,10-10
			C58.09,70.235,53.613,65.757,48.09,65.757z"/>
	</g>
</g>
<g>
	<g>
		<path d="M48.244,426.243h-0.179c-5.523,0-10,4.478-10,10c0,5.522,4.477,10,10,10h0.179c5.523,0,10-4.478,10-10
			C58.244,430.721,53.767,426.243,48.244,426.243z"/>
	</g>
</g>
<g>
	<g>
		<path d="M463.846,426.243h-0.179c-5.523,0-10,4.478-10,10c0,5.522,4.477,10,10,10h0.179c5.523,0,10-4.478,10-10
			C473.846,430.721,469.369,426.243,463.846,426.243z"/>
	</g>
</g>
<g>
	<g>
		<path d="M431.993,91.068c-23.159,0-42,18.841-42,42c0,12.91,6.009,25.072,16,32.972v61.087h-64.989V166.04
			c9.991-7.901,16-20.062,16-32.972c0-23.159-18.841-42-42-42s-42,18.841-42,42c0,12.91,6.009,25.072,16,32.972v61.087h-65.941
			v-61.146c9.944-7.903,15.925-20.044,15.925-32.913c0-23.159-18.841-42-42-42s-42,18.841-42,42c0,12.95,6.037,25.133,16.075,33.031
			v61.027h-64.989v-61.087c9.991-7.901,16-20.062,16-32.972c0-23.159-18.841-42-42-42c-23.159,0-42,18.841-42,42
			c0,12.91,6.009,25.072,16,32.973v87.086c0,14.337,11.664,26,26,26h90.99v66.782c-10.033,7.898-16.068,20.08-16.068,33.026
			c0,23.159,18.841,42,42,42s42-18.841,42-42c0-12.874-5.984-25.015-15.932-32.917v-66.892h65.941v66.842
			c-9.987,7.902-15.994,20.061-15.994,32.967c0,23.159,18.841,42,42,42c23.159,0,42-18.841,41.999-41.998
			c0-12.914-6.011-25.078-16.006-32.977v-66.832h90.989c14.336,0,26-11.663,26-26v-87.086c9.991-7.902,16-20.063,16-32.973
			C473.993,109.909,455.152,91.068,431.993,91.068z M442.983,152.12c-3.089,1.788-4.991,5.086-4.991,8.655v92.35
			c0,3.309-2.691,6-6,6H331.003c-5.523,0-10,4.478-10,10v82.097c0,3.57,1.904,6.869,4.994,8.656
			c6.793,3.929,11.013,11.231,11.013,19.056c0,12.131-9.869,22-22,22c-12.131,0-22-9.869-22-22c0-7.821,4.217-15.12,11.005-19.052
			c3.088-1.787,4.989-5.085,4.989-8.653v-82.104c0-5.522-4.477-10-10-10h-85.941c-5.522,0-10,4.478-9.998,10v82.14
			c0,3.561,1.893,6.853,4.97,8.643c6.761,3.935,10.961,11.225,10.961,19.026c0,12.131-9.869,22-22,22c-12.131,0-22-9.869-22-22
			c0-7.845,4.236-15.156,11.056-19.081c3.101-1.784,5.012-5.089,5.012-8.667v-82.061c0-5.522-4.477-10-10-10H80.075
			c-3.309,0-6-2.691-6-6v-92.35c0-3.569-1.902-6.867-4.991-8.655c-6.791-3.93-11.01-11.232-11.01-19.054c0-12.131,9.869-22,22-22
			c12.131,0,22,9.869,22,22c0,7.824-4.218,15.123-11.008,19.053c-3.09,1.787-4.992,5.086-4.992,8.655v76.351c0,5.522,4.477,10,10,10
			h84.988c5.523,0,10-4.478,10-10v-76.308c0-3.579-1.913-6.885-5.015-8.669c-6.822-3.923-11.06-11.235-11.06-19.082
			c0-12.131,9.869-22,22-22c12.131,0,22,9.869,22,22c0,7.798-4.199,15.087-10.958,19.024c-3.075,1.791-4.967,5.082-4.967,8.642
			v76.393c0,5.522,4.477,10,10,10h85.941c5.523,0,10-4.478,10-10v-76.35c0-3.569-1.902-6.867-4.991-8.655
			c-6.791-3.93-11.009-11.232-11.009-19.054c0-12.131,9.869-22,22-22c12.131,0,22,9.869,22,22c0,7.823-4.218,15.124-11.009,19.054
			c-3.089,1.788-4.991,5.086-4.991,8.655v76.35c0,5.522,4.477,10,10,10h84.989c5.523,0,10-4.478,10-10v-76.35
			c0-3.569-1.902-6.867-4.991-8.655c-6.791-3.93-11.009-11.232-11.009-19.054c0-12.131,9.869-22,22-22c12.131,0,22,9.869,22,22
			C453.992,140.889,449.774,148.19,442.983,152.12z"/>
	</g>
</g>
<g>
</g>
<g>
</g>
<g>
</g>
<g>
</g>
<g>
</g>
<g>
</g>
<g>
</g>
<g>
</g>
<g>
</g>
<g>
</g>
<g>
</g>
<g>
</g>
<g>
</g>
<g>
</g>
<g>
</g>
</svg>
