<?xml version="1.0" encoding="iso-8859-1"?>
<!-- Generator: Adobe Illustrator 19.0.0, SVG Export Plug-In . SVG Version: 6.00 Build 0)  -->
<svg version="1.1" id="Capa_1" xmlns="http://www.w3.org/2000/svg" xmlns:xlink="http://www.w3.org/1999/xlink" x="0px" y="0px"
	 viewBox="0 0 512 512" style="enable-background:new 0 0 512 512;" xml:space="preserve">
<g>
	<g>
		<path d="M512,213.037v-115c0-28.949-23.552-52.5-52.5-52.5H220c-5.522,0-10,4.477-10,10c0,5.523,4.478,10,10,10h239.5
			c17.921,0,32.5,14.58,32.5,32.5v115c0,17.92-14.579,32.5-32.5,32.5h-6.535l-13.433-94.78c-2.366-16.658-16.837-29.22-33.662-29.22
			h-45c-18.748,0-34,15.252-34,34c0,18.748,15.252,34,34,34h15.485l7.934,56h-81.194l-13.433-94.78
			c-2.365-16.658-16.837-29.22-33.662-29.22h-45c-18.748,0-34,15.252-34,34c0,18.748,15.252,34,34,34h15.484l7.934,56h-78.324
			l-13.433-94.78c-2.365-16.658-16.837-29.22-33.662-29.22H64c-18.748,0-34,15.252-34,34c0,18.748,15.252,34,34,34h15.484l7.937,56
			H52.5c-17.921,0-32.5-14.58-32.5-32.5v-115c0-17.92,14.579-32.5,32.5-32.5h58.833c5.522,0,10-4.477,10-10c0-5.523-4.478-10-10-10
			H52.5c-28.948,0-52.5,23.551-52.5,52.5v115c0,28.949,23.552,52.5,52.5,52.5h37.755l20.083,141.704
			c2.365,16.658,16.837,29.22,33.662,29.22h248c5.522,0,10-4.478,10-10c0-5.522-4.478-10-10-10H144
			c-6.928,0-12.887-5.173-13.86-12.029L98.068,178.134c-0.699-4.931-4.921-8.597-9.901-8.597H64c-7.72,0-14-6.28-14-14
			c0-7.72,6.28-14,14-14h45c6.928,0,12.887,5.173,13.86,12.029l32.071,226.298c0.699,4.932,4.921,8.597,9.901,8.597h98.518
			c2.896,0,5.651-1.256,7.551-3.443c1.9-2.187,2.757-5.091,2.351-7.959l-28.183-198.924c-0.699-4.932-4.921-8.597-9.901-8.597H211
			c-7.72,0-14-6.28-14-14c0-7.72,6.28-14,14-14h45c6.928,0,12.887,5.173,13.86,12.029l32.071,226.298
			c0.699,4.932,4.921,8.597,9.901,8.597H413.22c2.896,0,5.651-1.256,7.551-3.443c1.9-2.187,2.757-5.091,2.351-7.959l-28.183-198.924
			c-0.699-4.932-4.921-8.597-9.901-8.597H360.87c-7.72,0-14-6.28-14-14c0-7.72,6.28-14,14-14h45c6.928,0,12.887,5.173,13.86,12.029
			l32.071,226.298c0.699,4.932,4.921,8.597,9.901,8.597H492v68c0,5.522,4.478,10,10,10c5.522,0,10-4.478,10-10V346.949
			c0-5.522-4.478-10-10-10c-5.522,0-10,4.478-10,10v21.512h-21.614l-14.587-102.924h3.701C488.448,265.537,512,241.986,512,213.037z
			 M237.252,265.537l14.582,102.924h-78.318l-14.587-102.924H237.252z M387.123,265.537l14.582,102.924h-81.189l-14.587-102.924
			H387.123z"/>
	</g>
</g>
<g>
	<g>
		<path d="M167.417,45.537h-0.875c-5.522,0-10,4.477-10,10c0,5.523,4.477,10,10,10h0.875c5.522,0,10-4.477,10-10
			C177.417,50.014,172.939,45.537,167.417,45.537z"/>
	</g>
</g>
<g>
	<g>
		<path d="M452.069,419.389c-1.859-1.86-4.439-2.93-7.069-2.93s-5.21,1.07-7.07,2.93c-1.86,1.86-2.93,4.44-2.93,7.07
			s1.069,5.21,2.93,7.07c1.86,1.859,4.44,2.93,7.07,2.93s5.21-1.07,7.069-2.93c1.86-1.86,2.931-4.44,2.931-7.07
			S453.93,421.249,452.069,419.389z"/>
	</g>
</g>
<g>
	<g>
		<path d="M49.059,84.567h-0.18c-0.01,0-0.019,0-0.028,0c-5.51,0-9.984,4.459-9.999,9.973c-0.015,5.523,4.45,10.012,9.973,10.027
			h0.18c0.01,0,0.019,0,0.028,0c5.51,0,9.984-4.459,9.999-9.973C59.047,89.071,54.582,84.582,49.059,84.567z"/>
	</g>
</g>
<g>
	<g>
		<path d="M464.027,84.568h-0.179c-0.01,0-0.019,0-0.028,0c-5.51,0-9.984,4.459-9.999,9.973c-0.015,5.523,4.45,10.012,9.973,10.027
			h0.179c0.01,0,0.019,0,0.028,0c5.51,0,9.984-4.459,9.999-9.973C474.015,89.072,469.55,84.583,464.027,84.568z"/>
	</g>
</g>
<g>
	<g>
		<path d="M256.027,84.568h-0.179c-0.01,0-0.019,0-0.028,0c-5.51,0-9.984,4.459-9.999,9.973c-0.015,5.523,4.45,10.012,9.973,10.027
			h0.179c0.01,0,0.019,0,0.028,0c5.51,0,9.984-4.459,9.999-9.973C266.015,89.072,261.55,84.583,256.027,84.568z"/>
	</g>
</g>
<g>
	<g>
		<path d="M49.058,207.537h-0.18c-0.01,0-0.019,0-0.028,0c-5.51,0-9.984,4.459-9.999,9.973c-0.015,5.523,4.45,10.012,9.973,10.027
			h0.18c0.01,0,0.019,0,0.028,0c5.51,0,9.984-4.459,9.999-9.973C59.046,212.041,54.581,207.552,49.058,207.537z"/>
	</g>
</g>
<g>
	<g>
		<path d="M464.027,207.537h-0.179c-0.01,0-0.019,0-0.028,0c-5.51,0-9.984,4.459-9.999,9.973c-0.014,5.522,4.45,10.011,9.973,10.027
			h0.179c0.01,0,0.019,0,0.028,0c5.51,0,9.984-4.459,9.999-9.973C474.015,212.041,469.55,207.552,464.027,207.537z"/>
	</g>
</g>
<g>
</g>
<g>
</g>
<g>
</g>
<g>
</g>
<g>
</g>
<g>
</g>
<g>
</g>
<g>
</g>
<g>
</g>
<g>
</g>
<g>
</g>
<g>
</g>
<g>
</g>
<g>
</g>
<g>
</g>
</svg>
