<?xml version="1.0" standalone="no"?>
<!DOCTYPE svg PUBLIC "-//W3C//DTD SVG 20010904//EN"
 "http://www.w3.org/TR/2001/REC-SVG-20010904/DTD/svg10.dtd">
<svg version="1.0" xmlns="http://www.w3.org/2000/svg"
 width="880.000000pt" height="1317.000000pt" viewBox="0 0 880.000000 1317.000000"
 preserveAspectRatio="xMidYMid meet">
<metadata>
Created by potrace 1.16, written by Peter Selinger 2001-2019
</metadata>
<g transform="translate(0.000000,1317.000000) scale(0.100000,-0.100000)"
fill="#000000" stroke="none">
<path d="M3872 12754 c-30 -21 -52 -66 -52 -107 0 -54 -19 -71 -77 -69 -36 2
-57 -3 -75 -17 -13 -11 -50 -32 -81 -47 -40 -18 -72 -44 -105 -83 -25 -31 -68
-79 -94 -108 -74 -80 -64 -136 37 -200 25 -15 45 -32 45 -38 -1 -24 -105 -117
-195 -174 -75 -48 -252 -101 -370 -112 -196 -18 -284 -55 -339 -142 -114 -178
-196 -434 -167 -518 20 -57 104 -190 134 -211 53 -38 139 -68 197 -68 65 0
231 30 325 59 142 44 356 16 585 -77 41 -17 96 -38 123 -47 52 -19 77 -52 77
-105 0 -34 -65 -170 -103 -216 -13 -16 -59 -81 -102 -144 -44 -63 -103 -140
-131 -170 -50 -53 -87 -109 -270 -412 -217 -359 -276 -421 -514 -543 -104 -53
-168 -94 -215 -135 -37 -33 -93 -72 -124 -86 -49 -24 -64 -26 -128 -21 -68 5
-82 11 -230 93 -242 134 -310 176 -418 264 -118 96 -222 150 -286 150 -57 0
-159 -25 -209 -50 -87 -44 -167 -143 -210 -259 -12 -31 -62 -192 -111 -358
-107 -363 -134 -435 -249 -673 -49 -102 -96 -212 -105 -245 -27 -104 -30 -211
-9 -319 18 -96 18 -97 -6 -276 -20 -158 -22 -191 -12 -271 14 -117 34 -153 86
-157 21 -2 75 6 120 17 140 34 161 35 185 5 25 -31 85 -212 107 -319 22 -110
65 -197 129 -259 74 -72 148 -138 178 -158 18 -13 34 -44 57 -115 40 -121 61
-163 115 -233 106 -136 175 -180 280 -180 80 1 91 7 127 70 38 65 108 355 108
445 0 92 -17 193 -39 230 -19 33 -91 73 -180 100 -74 23 -72 21 -55 60 30 72
14 124 -80 262 -96 142 -136 216 -186 341 -78 199 -112 399 -72 435 38 34 75
26 157 -34 39 -28 106 -69 150 -91 122 -61 224 -125 405 -253 276 -195 378
-248 541 -280 85 -17 87 -18 110 -58 37 -67 190 -264 293 -379 151 -168 371
-359 609 -528 138 -97 191 -152 208 -212 8 -28 13 -118 14 -253 1 -241 4 -252
91 -465 31 -74 93 -240 139 -368 119 -332 170 -431 346 -668 78 -104 113 -172
103 -199 -8 -20 -44 -28 -96 -22 -24 4 -99 11 -168 16 -69 6 -149 15 -179 21
-29 5 -75 10 -102 10 -36 0 -55 6 -76 24 -37 31 -306 121 -421 141 -108 19
-161 19 -286 -1 -134 -21 -189 -16 -256 25 -29 18 -81 40 -116 48 -58 15 -73
14 -176 -1 -62 -9 -162 -29 -223 -43 -93 -22 -115 -31 -142 -58 -27 -27 -33
-41 -33 -74 0 -58 29 -128 96 -227 100 -149 226 -243 340 -252 78 -6 114 4
190 53 83 55 115 57 254 19 193 -53 218 -57 390 -56 266 2 413 -38 875 -236
245 -106 273 -109 401 -49 99 45 164 49 226 15 32 -18 47 -38 79 -103 48 -98
60 -178 36 -238 -23 -54 -168 -207 -343 -362 -83 -73 -186 -174 -230 -224 -78
-91 -229 -301 -239 -333 -3 -9 -28 -31 -55 -48 -69 -44 -102 -86 -139 -174
-38 -92 -101 -332 -101 -386 0 -53 8 -68 43 -86 26 -14 43 -14 131 -4 55 6
139 16 186 21 124 14 203 43 256 93 38 37 44 48 44 84 0 33 5 45 28 61 49 38
52 41 52 79 0 20 11 60 24 87 32 67 291 389 402 498 120 120 373 334 431 367
138 76 254 171 297 244 31 54 66 168 66 218 0 55 -11 72 -106 163 -70 68 -90
94 -123 165 -68 146 -90 321 -52 406 25 54 121 193 186 267 27 32 77 76 110
99 91 62 123 96 171 179 24 42 57 89 72 104 47 48 338 262 365 269 14 3 48 29
75 56 50 51 89 64 109 37 6 -6 20 -46 33 -87 29 -97 54 -145 101 -197 35 -38
39 -48 39 -95 0 -29 -7 -98 -16 -154 -17 -105 -13 -150 17 -165 86 -42 90 -43
107 -33 9 6 23 31 30 55 7 24 20 68 28 98 12 40 30 70 68 110 53 57 133 164
176 236 13 22 24 41 25 43 5 7 114 -22 147 -39 64 -32 114 -24 170 29 27 25
28 29 27 126 0 56 5 124 11 151 7 28 12 106 12 175 1 186 -26 258 -103 282
-50 15 -60 32 -51 93 l7 49 127 85 c225 151 332 255 445 428 115 176 177 364
190 574 7 116 -6 216 -54 409 -35 143 -36 147 -30 295 7 159 21 284 63 560 21
139 31 179 55 221 33 59 56 179 45 238 -10 51 -48 86 -95 86 -37 0 -101 -32
-101 -50 0 -16 -27 -12 -34 6 -14 37 -3 102 44 245 94 286 103 319 97 368 -11
98 -89 96 -209 -4 -55 -46 -160 -57 -175 -19 -3 9 7 43 22 77 15 34 56 133 91
220 72 178 79 223 40 270 -23 29 -24 29 -56 12 -68 -35 -327 -318 -421 -460
-68 -101 -147 -274 -173 -377 -34 -132 -56 -302 -63 -490 -6 -167 0 -220 42
-363 13 -44 31 -118 40 -165 17 -95 35 -160 106 -400 55 -184 75 -325 65 -450
-19 -238 -167 -539 -343 -700 -104 -96 -260 -186 -395 -231 l-67 -21 -34 21
c-19 12 -40 28 -46 35 -13 16 -60 143 -127 346 -79 239 -171 392 -334 556 -89
90 -170 145 -400 271 -261 143 -476 291 -609 418 -140 134 -189 204 -299 425
-141 286 -151 332 -72 364 59 23 151 20 245 -9 154 -48 230 -43 300 19 l36 31
-30 47 c-16 25 -38 49 -49 52 -16 5 -21 17 -24 55 -3 46 -1 49 35 71 22 15 46
42 58 68 20 40 24 43 50 38 40 -8 72 7 135 62 51 44 54 49 48 82 -3 19 -22 53
-42 75 -93 103 -98 115 -54 115 51 0 185 101 197 148 3 15 26 45 51 68 24 23
44 50 44 61 0 13 -31 49 -85 98 -47 42 -85 83 -85 91 0 18 31 31 92 39 57 7
109 41 123 79 7 22 5 34 -9 59 -67 112 -106 186 -111 210 -6 23 -4 27 14 27
66 0 231 111 231 156 0 30 -34 65 -104 109 -92 57 -123 89 -107 108 6 8 32 20
57 27 83 24 131 95 87 131 -9 8 -57 68 -106 134 -109 146 -200 241 -245 256
-18 6 -32 15 -30 21 5 14 7 14 71 -2 55 -13 62 -12 155 14 119 35 153 52 217
109 48 43 49 46 33 64 -10 11 -41 27 -70 36 -56 18 -188 109 -188 131 0 7 18
19 41 26 32 11 50 11 85 2 94 -25 189 -6 213 43 12 25 12 32 0 54 -8 14 -26
31 -39 38 -47 23 -84 59 -77 75 3 9 31 23 61 32 58 17 92 50 81 79 -4 8 -55
60 -115 115 -108 100 -108 100 -152 95 -36 -4 -49 -1 -73 19 -17 13 -65 48
-108 78 -47 32 -96 77 -126 115 -44 55 -56 64 -117 86 -56 19 -70 28 -72 47
-7 51 52 75 212 87 83 6 129 23 140 50 13 36 5 64 -26 90 -67 57 -141 68 -313
49 -196 -22 -301 -2 -429 81 -39 25 -91 52 -117 59 -26 8 -58 21 -71 30 -31
20 -133 46 -184 46 -42 0 -74 -22 -74 -51 0 -16 -19 -39 -32 -39 -14 0 -89
121 -144 233 -76 156 -101 196 -130 203 -35 9 -81 -14 -112 -55 -38 -50 -52
-60 -88 -61 -25 0 -41 11 -87 60 -59 64 -70 69 -105 44z m-2553 -3965 c82 -46
132 -89 201 -176 89 -110 220 -309 220 -333 0 -36 -43 -43 -145 -26 -49 9
-148 25 -220 36 -153 24 -226 53 -250 100 -15 29 -15 38 4 132 11 55 31 121
44 146 13 26 30 65 37 87 14 45 27 65 43 65 6 0 35 -14 66 -31z"/>
</g>
</svg>
