<?xml version="1.0" encoding="iso-8859-1"?>
<!-- Generator: Adobe Illustrator 19.0.0, SVG Export Plug-In . SVG Version: 6.00 Build 0)  -->
<svg version="1.1" id="Capa_1" xmlns="http://www.w3.org/2000/svg" xmlns:xlink="http://www.w3.org/1999/xlink" x="0px" y="0px"
	 viewBox="0 0 512.001 512.001" style="enable-background:new 0 0 512.001 512.001;" xml:space="preserve">
<g>
	<g>
		<path d="M453.579,0h-61.143c-17.33,0-31.429,14.099-31.429,31.429V95h-73.026c-0.4-12.198-10.441-22-22.734-22h-18.493
			c-12.294,0-22.334,9.802-22.734,22h-73.026V31.429C150.993,14.099,136.895,0,119.564,0H58.421
			c-17.33,0-31.428,14.099-31.428,31.429v139.143c0,17.33,14.099,31.429,31.428,31.429h61.143c17.33,0,31.429-14.099,31.429-31.429
			V115h73.026c0.392,11.948,10.033,21.589,21.981,21.981V212.5c0,5.522,4.477,10,10,10c5.523,0,10-4.478,10-10v-75.519
			c11.947-0.392,21.589-10.033,21.981-21.981h73.026v55.571c0,17.33,14.099,31.429,31.429,31.429h61.143
			c17.33,0,31.428-14.099,31.428-31.429V31.429C485.007,14.099,470.908,0,453.579,0z M130.993,71.18l-31.714,31.713
			c-3.905,3.905-3.906,10.237,0,14.143c1.953,1.952,4.512,2.929,7.071,2.929c2.559,0,5.119-0.977,7.071-2.929l17.572-17.572v19.395
			l-31.714,31.713c-3.905,3.905-3.906,10.237,0,14.143c1.953,1.952,4.512,2.929,7.071,2.929c2.559,0,5.119-0.977,7.071-2.929
			l17.572-17.572v23.429c0,6.301-5.127,11.428-11.429,11.428H58.421c-6.302,0-11.428-5.127-11.428-11.429v-23.429l17.571,17.571
			c1.953,1.952,4.512,2.929,7.071,2.929c2.559,0,5.119-0.977,7.071-2.929c3.905-3.905,3.905-10.237,0-14.143l-31.714-31.714V99.464
			l17.571,17.571c1.953,1.952,4.512,2.929,7.071,2.929c2.559,0,5.119-0.977,7.071-2.929c3.905-3.905,3.905-10.237,0-14.143
			L46.993,71.179V51.786l17.571,17.572c1.953,1.952,4.512,2.929,7.071,2.929c2.559,0,5.119-0.977,7.071-2.929
			c3.905-3.905,3.906-10.237,0-14.143L48.792,25.299c2.031-3.18,5.584-5.299,9.63-5.299h61.143c4.045,0,7.598,2.119,9.63,5.299
			L99.279,55.215c-3.905,3.905-3.905,10.237,0,14.143c1.953,1.952,4.512,2.929,7.071,2.929c2.559,0,5.119-0.977,7.071-2.929
			l17.572-17.572V71.18z M268,114.246c0,1.519-1.235,2.754-2.753,2.754h-18.493c-1.518,0-2.753-1.235-2.753-2.754V95.754
			c0-1.519,1.235-2.754,2.753-2.754h18.493c1.518,0,2.753,1.235,2.753,2.754V114.246z M465.007,71.178l-31.714,31.714
			c-3.905,3.905-3.905,10.237,0,14.143c1.953,1.952,4.512,2.929,7.071,2.929s5.119-0.977,7.071-2.929l17.571-17.571v19.394
			l-31.714,31.714c-3.905,3.905-3.905,10.237,0,14.143c1.953,1.952,4.512,2.929,7.071,2.929s5.119-0.977,7.071-2.929l17.571-17.571
			v23.429c0.003,6.3-5.124,11.427-11.425,11.427h-61.143c-6.302,0-11.429-5.127-11.429-11.429v-23.429l17.572,17.572
			c1.953,1.952,4.512,2.929,7.071,2.929s5.119-0.977,7.071-2.929c3.905-3.905,3.905-10.237,0-14.143l-31.714-31.713V99.463
			l17.572,17.572c1.953,1.952,4.512,2.929,7.071,2.929s5.119-0.977,7.071-2.929c3.905-3.905,3.905-10.237,0-14.143l-31.714-31.713
			V51.785l17.572,17.572c1.953,1.952,4.512,2.929,7.071,2.929s5.119-0.977,7.071-2.929c3.905-3.905,3.906-10.237,0-14.143
			l-29.915-29.916c2.032-3.18,5.584-5.299,9.63-5.299h61.143c4.045,0,7.598,2.119,9.629,5.299l-29.915,29.916
			c-3.905,3.905-3.905,10.237,0,14.143c1.953,1.952,4.512,2.929,7.071,2.929s5.119-0.977,7.071-2.929l17.571-17.572V71.178z"/>
	</g>
</g>
<g>
	<g>
		<path d="M453.579,310h-61.143c-17.33,0-31.429,14.099-31.429,31.429V401H288v-6.619c0-12.928-9.719-23.622-22.232-25.178
			c0.149-0.687,0.232-1.398,0.232-2.129V300c0-5.522-4.477-10-10-10c-5.523,0-10,4.478-10,10v67.073
			c0,0.731,0.083,1.442,0.232,2.129C233.719,370.759,224,381.453,224,394.381V401h-73.007v-59.571
			c0-17.33-14.099-31.429-31.429-31.429H58.421c-17.33,0-31.428,14.099-31.428,31.429v139.143c0,17.33,14.099,31.429,31.428,31.429
			h61.143c17.33,0,31.429-14.099,31.429-31.429V421H224v6.619C224,441.614,235.386,453,249.381,453h13.237
			C276.614,453,288,441.614,288,427.619V421h73.007v59.571c0,17.33,14.099,31.429,31.429,31.429h61.143
			c17.33,0,31.428-14.099,31.428-31.429V341.429C485.007,324.099,470.908,310,453.579,310z M130.991,381.177L99.277,412.89
			c-3.905,3.905-3.906,10.237,0,14.143c1.953,1.952,4.512,2.929,7.071,2.929c2.559,0,5.119-0.977,7.071-2.929l17.572-17.572v19.395
			l-31.714,31.713c-3.905,3.905-3.906,10.237,0,14.143c1.953,1.952,4.512,2.929,7.071,2.929c2.559,0,5.119-0.977,7.071-2.929
			l17.572-17.572v23.429c0.002,6.304-5.125,11.431-11.427,11.431H58.421c-6.302,0-11.428-5.127-11.428-11.429v-23.429l17.571,17.571
			c1.953,1.952,4.512,2.929,7.071,2.929c2.559,0,5.119-0.977,7.071-2.929c3.905-3.905,3.905-10.237,0-14.143l-31.714-31.714v-19.394
			l17.571,17.571c1.953,1.952,4.512,2.929,7.071,2.929c2.559,0,5.119-0.977,7.071-2.929c3.905-3.905,3.905-10.237,0-14.143
			l-31.714-31.714v-19.393l17.571,17.572c1.953,1.952,4.512,2.929,7.071,2.929c2.559,0,5.119-0.977,7.071-2.929
			c3.905-3.905,3.906-10.237,0-14.143l-29.915-29.916c2.031-3.18,5.584-5.299,9.63-5.299h61.143c4.045,0,7.598,2.119,9.63,5.299
			l-29.915,29.916c-3.905,3.905-3.905,10.237,0,14.143c1.953,1.952,4.512,2.929,7.071,2.929c2.559,0,5.119-0.977,7.071-2.929
			l17.572-17.572V381.177z M268,427.619c0,2.967-2.414,5.381-5.381,5.381h-13.237c-2.967,0-5.381-2.414-5.381-5.381v-33.238
			c0-2.967,2.414-5.381,5.381-5.381h13.237c2.967,0,5.381,2.414,5.381,5.381V427.619z M465.007,381.178l-31.714,31.714
			c-3.905,3.905-3.905,10.237,0,14.143c1.953,1.952,4.512,2.929,7.071,2.929s5.119-0.977,7.071-2.929l17.571-17.571v19.394
			l-31.714,31.714c-3.905,3.905-3.905,10.237,0,14.143c1.953,1.952,4.512,2.929,7.071,2.929s5.119-0.977,7.071-2.929l17.571-17.571
			v23.429c0.003,6.3-5.124,11.427-11.425,11.427h-61.143c-6.302,0-11.429-5.127-11.429-11.429v-23.429l17.572,17.572
			c1.953,1.952,4.512,2.929,7.071,2.929s5.119-0.977,7.071-2.929c3.905-3.905,3.905-10.237,0-14.143l-31.714-31.713v-19.395
			l17.572,17.572c1.953,1.952,4.512,2.929,7.071,2.929s5.119-0.977,7.071-2.929c3.905-3.905,3.905-10.237,0-14.143l-31.714-31.713
			v-19.394l17.572,17.572c1.953,1.952,4.512,2.929,7.071,2.929s5.119-0.977,7.071-2.929c3.905-3.905,3.906-10.237,0-14.143
			l-29.915-29.916c2.032-3.18,5.584-5.299,9.63-5.299h61.143c4.045,0,7.598,2.119,9.629,5.299l-29.915,29.916
			c-3.905,3.905-3.905,10.237,0,14.143c1.953,1.952,4.512,2.929,7.071,2.929s5.119-0.977,7.071-2.929l17.571-17.572V381.178z"/>
	</g>
</g>
<g>
	<g>
		<path d="M263.07,248.93c-1.86-1.86-4.44-2.93-7.07-2.93c-2.63,0-5.21,1.069-7.07,2.93c-1.86,1.86-2.93,4.44-2.93,7.07
			s1.07,5.21,2.93,7.069c1.86,1.861,4.44,2.931,7.07,2.931c2.63,0,5.21-1.07,7.07-2.931c1.86-1.859,2.93-4.439,2.93-7.069
			S264.93,250.79,263.07,248.93z"/>
	</g>
</g>
<g>
</g>
<g>
</g>
<g>
</g>
<g>
</g>
<g>
</g>
<g>
</g>
<g>
</g>
<g>
</g>
<g>
</g>
<g>
</g>
<g>
</g>
<g>
</g>
<g>
</g>
<g>
</g>
<g>
</g>
</svg>
