<?xml version="1.0" encoding="iso-8859-1"?>
<!-- Generator: Adobe Illustrator 19.0.0, SVG Export Plug-In . SVG Version: 6.00 Build 0)  -->
<svg version="1.1" id="Capa_1" xmlns="http://www.w3.org/2000/svg" xmlns:xlink="http://www.w3.org/1999/xlink" x="0px" y="0px"
	 viewBox="0 0 512.001 512.001" style="enable-background:new 0 0 512.001 512.001;" xml:space="preserve">
<g>
	<g>
		<path d="M72,126h-0.437c-5.523,0-10,4.477-10,10s4.478,10,10,10H72c5.523,0,10-4.477,10-10S77.523,126,72,126z"/>
	</g>
</g>
<g>
	<g>
		<path d="M480.571,126c-5.523,0-10,4.477-10,10s4.477,10,10,10c5.245,0,9.666,3.557,11.004,8.382
			c-0.604,0.385-1.178,0.835-1.706,1.363l-34.643,34.643c-3.905,3.905-3.905,10.237,0,14.142c1.953,1.953,4.512,2.929,7.071,2.929
			s5.119-0.977,7.071-2.929L492,181.898v19.911c-0.761,0.433-1.482,0.964-2.131,1.613l-34.643,34.643
			c-3.905,3.905-3.905,10.237,0,14.143c1.953,1.952,4.512,2.929,7.071,2.929s5.119-0.977,7.071-2.929L492,229.577v19.911
			c-0.761,0.433-1.482,0.964-2.131,1.613l-34.643,34.643c-3.905,3.905-3.905,10.237,0,14.143c1.953,1.952,4.512,2.929,7.071,2.929
			s5.119-0.977,7.071-2.929L492,277.256v19.911c-0.761,0.433-1.482,0.964-2.131,1.613l-34.643,34.643
			c-3.905,3.905-3.905,10.237,0,14.143c1.953,1.952,4.512,2.929,7.071,2.929s5.119-0.977,7.071-2.929L492,324.935v29.637
			c0,6.302-5.127,11.429-11.429,11.429h-81.143c-6.302,0-11.429-5.127-11.429-11.429v-29.637l22.631,22.631
			c1.953,1.952,4.512,2.929,7.071,2.929s5.119-0.977,7.071-2.929c3.905-3.905,3.905-10.237,0-14.143l-34.643-34.643
			c-0.649-0.649-1.37-1.18-2.131-1.613v-19.911l22.631,22.631c1.953,1.952,4.512,2.929,7.071,2.929s5.119-0.977,7.071-2.929
			c3.905-3.905,3.905-10.237,0-14.143l-34.643-34.643c-0.649-0.649-1.37-1.18-2.131-1.613v-19.911l22.631,22.631
			c1.953,1.952,4.512,2.929,7.071,2.929s5.119-0.977,7.071-2.929c3.905-3.905,3.905-10.237,0-14.143l-34.643-34.643
			c-0.649-0.649-1.37-1.18-2.131-1.613v-19.911l22.631,22.631c1.953,1.953,4.512,2.929,7.071,2.929s5.119-0.977,7.071-2.929
			c3.905-3.905,3.906-10.237,0-14.142l-34.643-34.643c-0.527-0.527-1.102-0.977-1.706-1.362c1.338-4.825,5.758-8.382,11.004-8.382
			c5.523,0,10-4.477,10-10s-4.477-10-10-10C382.099,126,368,140.099,368,157.429v46.603h-22c-5.523,0-10,4.477-10,10v4.01h-49.265
			C282.957,205.312,271.151,196,257.212,196h-2.424c-13.939,0-25.745,9.312-29.523,22.042H176v-4.01c0-5.523-4.477-10-10-10h-22
			v-46.603c0-17.33-14.099-31.429-31.429-31.429c-5.523,0-10,4.477-10,10s4.477,10,10,10c5.245,0,9.666,3.557,11.004,8.382
			c-0.604,0.385-1.178,0.835-1.706,1.363l-34.643,34.643c-3.905,3.905-3.905,10.237,0,14.142c1.953,1.953,4.512,2.929,7.071,2.929
			s5.119-0.977,7.071-2.929L124,181.898v19.911c-0.761,0.433-1.482,0.964-2.131,1.613l-34.643,34.643
			c-3.905,3.905-3.905,10.237,0,14.143c1.953,1.952,4.512,2.929,7.071,2.929s5.119-0.977,7.071-2.929L124,229.577v19.911
			c-0.761,0.433-1.482,0.964-2.131,1.613l-34.643,34.643c-3.905,3.905-3.905,10.237,0,14.143c1.953,1.952,4.512,2.929,7.071,2.929
			s5.119-0.977,7.071-2.929L124,277.256v19.911c-0.761,0.433-1.482,0.964-2.131,1.613l-34.643,34.643
			c-3.905,3.905-3.905,10.237,0,14.143c1.953,1.952,4.512,2.929,7.071,2.929s5.119-0.977,7.071-2.929L124,324.935v29.637
			c0,6.302-5.127,11.429-11.429,11.429H31.429C25.127,366,20,360.873,20,354.571v-29.637l22.631,22.631
			c1.953,1.952,4.512,2.929,7.071,2.929c2.559,0,5.119-0.977,7.071-2.929c3.905-3.905,3.905-10.237,0-14.143L22.131,298.78
			c-0.649-0.649-1.37-1.18-2.131-1.613v-19.911l22.631,22.631c1.953,1.952,4.512,2.929,7.071,2.929c2.559,0,5.119-0.977,7.071-2.929
			c3.905-3.905,3.905-10.237,0-14.143L22.13,251.101c-0.649-0.649-1.37-1.18-2.131-1.613v-19.911l22.631,22.631
			c1.953,1.952,4.512,2.929,7.071,2.929c2.559,0,5.119-0.977,7.071-2.929c3.905-3.905,3.905-10.237,0-14.143l-34.643-34.643
			c-0.649-0.649-1.37-1.18-2.131-1.613v-19.911l22.631,22.631c1.953,1.953,4.512,2.929,7.071,2.929c2.559,0,5.119-0.977,7.071-2.929
			c3.905-3.905,3.906-10.237,0-14.142l-34.643-34.643c-0.527-0.527-1.102-0.977-1.706-1.362C21.76,149.557,26.18,146,31.426,146
			c5.523,0,10-4.477,10-10s-4.477-10-10-10C14.099,126,0,140.099,0,157.429v197.143C0,371.901,14.099,386,31.429,386h81.143
			c17.33,0,31.429-14.099,31.429-31.429v-46.603h22c5.523,0,10-4.478,10-10v-4.011h49.265C229.043,306.688,240.849,316,254.788,316
			h2.424c13.939,0,25.745-9.313,29.523-22.042H336v4.011c0,5.522,4.477,10,10,10h22v46.603c0,17.33,14.099,31.429,31.429,31.429
			h81.143c17.33,0,31.429-14.099,31.429-31.429V157.429C512,140.099,497.901,126,480.571,126z M156,228.041v55.917v4.011h-12
			v-63.938h12V228.041z M336,273.958h-58c-5.523,0-10,4.478-10,10v1.254c0,5.948-4.839,10.788-10.788,10.788h-2.424
			c-5.949,0-10.788-4.84-10.788-10.788v-1.254c0-5.522-4.477-10-10-10h-58v-35.917h58c5.523,0,10-4.477,10-10v-1.253
			c0-5.949,4.839-10.788,10.788-10.788h2.424c5.949,0,10.788,4.839,10.788,10.788v1.253c0,5.523,4.477,10,10,10h58V273.958z
			 M368,287.969h-12v-4.011v-55.917v-4.01h12V287.969z"/>
	</g>
</g>
<g>
	<g>
		<path d="M448.05,128.93c-1.86-1.86-4.44-2.93-7.07-2.93s-5.21,1.07-7.07,2.93s-2.93,4.44-2.93,7.07s1.07,5.21,2.93,7.07
			s4.44,2.93,7.07,2.93s5.21-1.07,7.07-2.93c1.86-1.86,2.93-4.44,2.93-7.07S449.91,130.79,448.05,128.93z"/>
	</g>
</g>
<g>
</g>
<g>
</g>
<g>
</g>
<g>
</g>
<g>
</g>
<g>
</g>
<g>
</g>
<g>
</g>
<g>
</g>
<g>
</g>
<g>
</g>
<g>
</g>
<g>
</g>
<g>
</g>
<g>
</g>
</svg>
